<svg width="200" height="174" viewBox="0 0 200 174" fill="none" xmlns="http://www.w3.org/2000/svg">
<path d="M170.058 44.6L170.058 42.4171L168.167 41.3257L101.656 2.92572L99.7661 1.83429L97.8756 2.92572L31.3649 41.3257L29.4745 42.4171L29.4745 44.6L29.4745 121.4L29.4745 123.583L31.3649 124.674L97.8756 163.074L99.766 164.166L101.656 163.074L168.167 124.674L170.058 123.583L170.058 121.4L170.058 44.6Z" fill="#009EFF" stroke="#F7F7F7" stroke-width="7.56163"/>
<path d="M91.388 86.3811V76.1114H97.8031V66.8091H91.388V36.7442H76.7675L57 67.7765V76.1114H80.7956V86.3811H91.388ZM80.7956 66.8091H67.3686L80.7956 46.1209V66.8091Z" fill="white"/>
<path d="M122.768 87.2741C136.941 87.2741 143.356 74.3997 143.356 61.5998C143.356 48.7999 136.941 36 122.768 36C108.521 36 102.18 48.7999 102.18 61.5998C102.18 74.3997 108.521 87.2741 122.768 87.2741ZM122.768 77.8974C115.607 77.8974 112.922 70.7533 112.922 61.5998C112.922 52.4464 115.607 45.3767 122.768 45.3767C129.855 45.3767 132.54 52.4464 132.54 61.5998C132.54 70.7533 129.855 77.8974 122.768 77.8974Z" fill="white"/>
<path d="M89.7299 118H86.4753V110.859C86.4753 109.856 86.2972 109.119 85.941 108.649C85.601 108.163 85.1233 107.921 84.508 107.921C83.8766 107.921 83.2694 108.172 82.6865 108.674C82.1198 109.159 81.715 109.799 81.4721 110.592V118H78.2175V110.859C78.2175 109.839 78.0394 109.095 77.6832 108.625C77.3432 108.155 76.8655 107.921 76.2502 107.921C75.6187 107.921 75.0115 108.163 74.4286 108.649C73.8619 109.135 73.4571 109.775 73.2143 110.568V118H69.9597V105.273H72.8985V107.629C73.3843 106.803 74.0319 106.172 74.8415 105.735C75.6511 105.281 76.5822 105.055 77.6346 105.055C78.6871 105.055 79.5048 105.314 80.0877 105.832C80.6868 106.35 81.0673 106.99 81.2292 107.751C81.7473 106.876 82.4031 106.212 83.1965 105.759C84.0061 105.289 84.9128 105.055 85.9167 105.055C86.7101 105.055 87.3497 105.2 87.8355 105.492C88.3374 105.767 88.726 106.148 89.0013 106.633C89.2765 107.103 89.4627 107.637 89.5599 108.236C89.6732 108.835 89.7299 109.443 89.7299 110.058V118ZM92.5634 118V105.273H95.818V118H92.5634ZM92.5634 103.5V100.27H95.818V103.5H92.5634ZM98.7296 100.27H101.984V113.92C101.984 114.503 102.081 114.899 102.276 115.11C102.47 115.304 102.737 115.401 103.077 115.401C103.336 115.401 103.603 115.369 103.879 115.304C104.154 115.239 104.397 115.158 104.607 115.061L105.044 117.539C104.607 117.749 104.097 117.911 103.514 118.024C102.931 118.138 102.405 118.194 101.936 118.194C100.916 118.194 100.122 117.927 99.5554 117.393C99.0049 116.842 98.7296 116.065 98.7296 115.061V100.27ZM112.364 118.243C111.344 118.243 110.421 118.073 109.596 117.733C108.77 117.377 108.065 116.899 107.483 116.3C106.9 115.685 106.446 114.988 106.122 114.211C105.815 113.418 105.661 112.584 105.661 111.709C105.661 110.495 105.928 109.386 106.462 108.382C107.013 107.378 107.79 106.577 108.794 105.978C109.814 105.362 111.012 105.055 112.389 105.055C113.781 105.055 114.971 105.362 115.959 105.978C116.947 106.577 117.7 107.378 118.218 108.382C118.752 109.37 119.019 110.438 119.019 111.588C119.019 111.782 119.011 111.985 118.995 112.195C118.979 112.39 118.963 112.551 118.946 112.681H109.11C109.175 113.329 109.361 113.895 109.668 114.381C109.992 114.867 110.397 115.239 110.883 115.498C111.385 115.741 111.919 115.863 112.486 115.863C113.133 115.863 113.741 115.709 114.307 115.401C114.89 115.077 115.287 114.656 115.497 114.138L118.291 114.915C117.983 115.563 117.538 116.138 116.955 116.64C116.388 117.142 115.716 117.539 114.939 117.83C114.162 118.105 113.303 118.243 112.364 118.243ZM109.037 110.617H115.692C115.627 109.969 115.441 109.41 115.133 108.941C114.842 108.455 114.453 108.083 113.967 107.823C113.482 107.548 112.939 107.411 112.34 107.411C111.757 107.411 111.223 107.548 110.737 107.823C110.268 108.083 109.879 108.455 109.571 108.941C109.28 109.41 109.102 109.969 109.037 110.617ZM125.689 118.243C124.605 118.243 123.568 118.065 122.581 117.709C121.593 117.352 120.743 116.826 120.03 116.13L121.196 114.017C121.957 114.632 122.702 115.085 123.431 115.377C124.175 115.668 124.888 115.814 125.568 115.814C126.199 115.814 126.701 115.701 127.074 115.474C127.462 115.247 127.657 114.907 127.657 114.454C127.657 114.146 127.551 113.912 127.341 113.75C127.13 113.572 126.823 113.418 126.418 113.288C126.029 113.159 125.552 113.013 124.985 112.851C124.046 112.543 123.261 112.244 122.629 111.952C121.998 111.661 121.52 111.297 121.196 110.859C120.889 110.406 120.735 109.831 120.735 109.135C120.735 108.293 120.945 107.572 121.366 106.973C121.803 106.358 122.402 105.88 123.163 105.54C123.941 105.2 124.847 105.03 125.884 105.03C126.79 105.03 127.649 105.176 128.458 105.468C129.268 105.743 130.004 106.196 130.668 106.828L129.357 108.892C128.709 108.39 128.094 108.026 127.511 107.799C126.928 107.556 126.337 107.435 125.738 107.435C125.398 107.435 125.074 107.475 124.766 107.556C124.475 107.637 124.232 107.775 124.038 107.969C123.86 108.147 123.771 108.406 123.771 108.746C123.771 109.054 123.852 109.297 124.014 109.475C124.192 109.637 124.451 109.783 124.791 109.912C125.147 110.042 125.576 110.187 126.078 110.349C127.098 110.641 127.956 110.94 128.652 111.248C129.365 111.556 129.899 111.936 130.255 112.39C130.612 112.827 130.79 113.434 130.79 114.211C130.79 115.474 130.328 116.462 129.405 117.174C128.482 117.887 127.244 118.243 125.689 118.243Z" fill="white"/>
</svg>
