<svg width="20" height="20" viewBox="0 0 20 20" fill="none" xmlns="http://www.w3.org/2000/svg">
<g clip-path="url(#clip0_405_6427)">
<path fill-rule="evenodd" clip-rule="evenodd" d="M6.54528 16.547C5.99386 16.547 5.54684 16.994 5.54684 17.5455C5.54684 18.0969 5.99386 18.5439 6.54528 18.5439C7.09671 18.5439 7.54372 18.0969 7.54372 17.5455C7.54372 16.994 7.09671 16.547 6.54528 16.547ZM4.271 17.5455C4.271 16.2894 5.28923 15.2712 6.54528 15.2712C7.80134 15.2712 8.81957 16.2894 8.81957 17.5455C8.81957 18.8015 7.80134 19.8198 6.54528 19.8198C5.28923 19.8198 4.271 18.8015 4.271 17.5455Z" fill="#323941"/>
<path fill-rule="evenodd" clip-rule="evenodd" d="M16.3636 16.547C15.8122 16.547 15.3652 16.994 15.3652 17.5455C15.3652 18.0969 15.8122 18.5439 16.3636 18.5439C16.9151 18.5439 17.3621 18.0969 17.3621 17.5455C17.3621 16.994 16.9151 16.547 16.3636 16.547ZM14.0894 17.5455C14.0894 16.2894 15.1076 15.2712 16.3636 15.2712C17.6197 15.2712 18.6379 16.2894 18.6379 17.5455C18.6379 18.8015 17.6197 19.8198 16.3636 19.8198C15.1076 19.8198 14.0894 18.8015 14.0894 17.5455Z" fill="#323941"/>
<path fill-rule="evenodd" clip-rule="evenodd" d="M0.180176 1.18184C0.180176 0.829523 0.465784 0.543915 0.8181 0.543915H2.65901C3.21038 0.54475 3.74365 0.745864 4.15782 1.10984C4.57195 1.47377 4.83978 1.97574 4.9115 2.52237C4.9115 2.52243 4.91149 2.52231 4.9115 2.52237L5.19022 4.63482H18.8181C19.0092 4.63482 19.1903 4.72054 19.3115 4.86837C19.4326 5.0162 19.4811 5.21058 19.4436 5.398L18.0693 12.2616C18.0692 12.2616 18.0693 12.2615 18.0693 12.2616C17.9652 12.785 17.6804 13.2554 17.2647 13.5901C16.8506 13.9234 16.3329 14.1011 15.8016 14.0925H7.1615C6.60725 14.0965 6.07058 13.8979 5.65237 13.5341C5.23356 13.1697 4.96248 12.6648 4.8902 12.1144L3.64657 2.68892C3.6151 2.44892 3.49744 2.228 3.31562 2.06821C3.13389 1.90851 2.90037 1.82023 2.65846 1.81976H0.8181C0.465784 1.81976 0.180176 1.53415 0.180176 1.18184ZM5.35856 5.91067L6.15509 11.9475C6.18677 12.1892 6.30587 12.4115 6.48979 12.5715C6.67371 12.7315 6.90982 12.8187 7.1536 12.8167L7.15901 12.8166L15.8194 12.8166C16.0537 12.8211 16.2821 12.7432 16.4646 12.5963C16.6472 12.4493 16.7722 12.2429 16.8179 12.013L18.0398 5.91067H5.35856Z" fill="#323941"/>
</g>
<defs>
<clipPath id="clip0_405_6427">
<rect width="19.6364" height="19.6364" fill="white" transform="translate(0 0.363647)"/>
</clipPath>
</defs>
</svg>
